# xmcd
#
# Track frame offsets: 
#        150
#        49628
#        68779
#        85871
#        103363
#        121863
#
# Disc length: 1905 seconds
#
# Revision: 2
# Processed by: cddbd v1.5.2PL0 Copyright (c) Steve Scherf et al.
# Submitted via: ExactAudioCopy v1.0b2
#
DISCID=4a076f06
DTITLE=Miles Davis - BEST JAZZ COLLECTION 1 MILES DAVIS
DYEAR=2012
DGENRE=Jazz
TTITLE0=AUTUMN LEAVES
TTITLE1=DEAR OLD STOCKHOLN
TTITLE2=YESTERDAYS
TTITLE3=TEMPUS FUGIT
TTITLE4=IT NEVER ENTERED MY MIND
TTITLE5=HOW DEEP IS THE OCEAN
EXTD=YEAR: 2012
EXTT0=
EXTT1=
EXTT2=
EXTT3=
EXTT4=
EXTT5=
PLAYORDER=
